<svg width="100" height="120" viewBox="0 0 100 120" fill="none" xmlns="http://www.w3.org/2000/svg">
  <defs>
    <clipPath id="suitcase-clip-mono">
      <rect x="17.75" y="25.75" width="64.5" height="76.5" rx="11.25" />
    </clipPath>
  </defs>
  <rect x="36" y="10" width="28" height="15" rx="5" stroke="currentColor" strokeWidth="5.5" strokeLinejoin="round" fill="none" />
  <rect x="30" y="103" width="8" height="8" rx="4" fill="currentColor" />
  <rect x="62" y="103" width="8" height="8" rx="4" fill="currentColor" />
  <rect x="15" y="23" width="70" height="82" rx="14" stroke="currentColor" strokeWidth="5.5" strokeLinejoin="round" fill="none" />
  <g clipPath="url(#suitcase-clip-mono)">
    <path d="M 10 106 L 38 67 L 66 106 Z" fill="currentColor" opacity="0.3" />
    <path d="M 34 106 L 62 60 L 90 106 Z" fill="currentColor" opacity="0.5" />
    <path d="M 10 106 L 15 88 L 28 80 L 42 88 L 56 75 L 70 86 L 85 80 L 90 106 Z" fill="currentColor" opacity="0.8" />
  </g>
  <g>
    <path d="M 50 31 C 44.5 31, 40 35.5, 40 41 C 40 49, 50 59, 50 59 C 50 59, 60 49, 60 41 C 60 35.5, 55.5 31, 50 31 Z" fill="currentColor" />
    <circle cx="50" cy="41" r="3.5" fill="none" />
  </g>
</svg>
